<?xml version="1.0" encoding="UTF-8"?>
<svg width="92px" height="17px" viewBox="0 0 92 17" version="1.1" xmlns="http://www.w3.org/2000/svg" xmlns:xlink="http://www.w3.org/1999/xlink">
    <!-- Generator: Sketch 51.1 (57501) - http://www.bohemiancoding.com/sketch -->
    <title>LUMDB</title>
    <desc>Created with Sketch.</desc>
    <defs></defs>
    <g id="Page-1" stroke="none" stroke-width="1" fill="none" fill-rule="evenodd">
        <g id="logo" fill="#FFFFFF" fill-rule="nonzero">
            <g id="LUMDB">
                <g id="path4_fill-link" transform="translate(19.776000, 2.150000)">
                    <path d="M5.6236,12.8496 L2.5299,2.76855 L2.4508,2.76855 C2.5621,4.81934 2.6178,6.1875 2.6178,6.87305 L2.6178,12.8496 L0.1832,12.8496 L0.1832,0 L3.8922,0 L6.9332,9.82617 L6.9859,9.82617 L10.2115,0 L13.9205,0 L13.9205,12.8496 L11.3805,12.8496 L11.3805,6.76758 C11.3805,6.48047 11.3834,6.14941 11.3893,5.77441 C11.401,5.39941 11.442,4.40332 11.5123,2.78613 L11.4332,2.78613 L8.1197,12.8496 L5.6236,12.8496 Z" id="path4_fill"></path>
                </g>
                <g id="path5_fill-link" transform="translate(38.776000, 2.150000)">
                    <path d="M11.5248,6.30176 C11.5248,8.41699 10.9213,10.0371 9.7143,11.1621 C8.5131,12.2871 6.7758,12.8496 4.5023,12.8496 L0.8637,12.8496 L0.8637,0 L4.8979,0 C6.9955,0 8.6244,0.553711 9.7846,1.66113 C10.9447,2.76855 11.5248,4.31543 11.5248,6.30176 Z M8.6947,6.37207 C8.6947,3.6123 7.476,2.23242 5.0385,2.23242 L3.5883,2.23242 L3.5883,10.5996 L4.7572,10.5996 C7.3822,10.5996 8.6947,9.19043 8.6947,6.37207 Z" id="path5_fill"></path>
                </g>
                <g id="path6_fill-link" transform="translate(54.776000, 2.150000)">
                    <path d="M0.8879,0 L4.8869,0 C6.7092,0 8.0305,0.260742 8.8508,0.782227 C9.677,1.29785 10.09,2.12109 10.09,3.25195 C10.09,4.01953 9.9084,4.64941 9.5451,5.1416 C9.1877,5.63379 8.7102,5.92969 8.1125,6.0293 L8.1125,6.11719 C8.927,6.29883 9.5129,6.63867 9.8703,7.13672 C10.2336,7.63477 10.4152,8.29688 10.4152,9.12305 C10.4152,10.2949 9.9904,11.209 9.1408,11.8652 C8.2971,12.5215 7.1486,12.8496 5.6955,12.8496 L0.8879,12.8496 L0.8879,0 Z M3.6125,5.08887 L5.1945,5.08887 C5.9328,5.08887 6.466,4.97461 6.7941,4.74609 C7.1281,4.51758 7.2951,4.13965 7.2951,3.6123 C7.2951,3.12012 7.1135,2.76855 6.7502,2.55762 C6.3928,2.34082 5.8244,2.23242 5.0451,2.23242 L3.6125,2.23242 L3.6125,5.08887 Z M3.6125,7.25098 L3.6125,10.5996 L5.3879,10.5996 C6.1379,10.5996 6.6916,10.4561 7.049,10.1689 C7.4064,9.88184 7.5852,9.44238 7.5852,8.85059 C7.5852,7.78418 6.8234,7.25098 5.3,7.25098 L3.6125,7.25098 Z" id="path6_fill"></path>
                </g>
                <polygon id="Path-2" points="73 15.6921881 80.5581721 0 82.7272429 0.997474658 82.0462944 2.47603052 91.0277396 8.0260242 91.0277396 10.1018707 84.033796 14.4116982 82.7272429 12.4912899 88.5242939 9.0350556 81.0059956 4.63925874 75.2126685 16.7020506"></polygon>
                <polygon id="Path" points="6.97739115 13.7444972 8.23870518 11.7199133 2.43001221 8.3690984 8.23870518 4.9628739 7.04623544 3 0 7.34766028 0 9.41953625"></polygon>
            </g>
        </g>
    </g>
</svg>